<?xml version="1.0" encoding="UTF-8"?>
<!DOCTYPE svg PUBLIC "-//W3C//DTD SVG 1.1//EN" "http://www.w3.org/Graphics/SVG/1.1/DTD/svg11.dtd">
<!-- Creator: CorelDRAW 2020 (64 Bit Versão de avaliação) -->
<svg xmlns="http://www.w3.org/2000/svg" xml:space="preserve" width="864px" height="768px" version="1.1" style="shape-rendering:geometricPrecision; text-rendering:geometricPrecision; image-rendering:optimizeQuality; fill-rule:evenodd; clip-rule:evenodd"
viewBox="0 0 142.698 126.843"
 xmlns:xlink="http://www.w3.org/1999/xlink"
 xmlns:xodm="http://www.corel.com/coreldraw/odm/2003">
 <defs>
  <style type="text/css">
   <![CDATA[
    .fil3 {fill:none}
    .fil2 {fill:#0F0F0F}
    .fil0 {fill:red}
    .fil1 {fill:#023A78;fill-rule:nonzero}
   ]]>
  </style>
 </defs>
 <g id="Camada_x0020_1">
  <metadata id="CorelCorpID_0Corel-Layer"/>
  <g id="_2522912151072">
   <path class="fil0" d="M78.117 61.135l7.411 -42.577c-2.703,-1.833 -3.781,-4.764 -3.781,-7.807 0,-2.058 0.02,-4.582 0.963,-6.35 1.461,-3.003 4.718,-4.401 8.204,-4.401l24.129 0c4.215,0 7.686,2.118 9.335,5.619 1.341,2.848 1.81,6.732 2.251,9.818 0.226,1.58 0.475,3.157 0.735,4.732l10.353 62.707c0.176,1.064 0.555,2.521 1.438,3.312 0.891,0.693 1.699,1.449 2.313,2.365l0.091 0.136 0.084 0.14c0.964,1.605 1.055,3.402 1.055,5.182 0,2.238 -0.091,4.753 -1.397,6.723 -1.66,2.5 -4.566,3.638 -7.705,3.638l-27.937 0c-2.432,0 -4.338,-0.852 -5.682,-2.201 -1.561,1.472 -3.763,2.201 -6.114,2.201l-16.617 0c-5.539,0 -8.155,-4.268 -8.155,-8.764 0,-0.05 0,-0.1 0.001,-0.149 -0.037,0.032 -0.074,0.066 -0.111,0.098 -7.803,6.892 -18.952,8.815 -29.487,8.815l-30.822 0c-5.052,0 -8.672,-3.381 -8.672,-7.926l0 -3.448c0,-3.355 2.081,-6.134 5.295,-7.548l0 -65.957c-2.213,-1.002 -3.989,-2.5 -4.762,-4.703 -0.547,-1.557 -0.533,-3.349 -0.533,-4.974 0,-2.424 0.436,-4.841 2.164,-6.785 1.873,-2.109 4.656,-3.031 7.585,-3.031l34.566 0c8.722,0 17.375,1.878 23.851,7.457 5.962,5.135 8.799,11.707 8.799,19.112 0,6.331 -2.296,12.03 -7.131,16.648 -0.892,0.852 -1.832,1.653 -2.822,2.401 2.425,1.55 4.625,3.378 6.371,5.546 2.413,2.996 3.896,6.408 4.734,9.971zm23.598 23.601l-4.095 0c-0.057,0.378 -0.147,0.75 -0.263,1.118 1.033,0.591 1.968,1.295 2.736,2.15 0.552,-0.557 1.179,-1.058 1.858,-1.525 -0.055,-0.572 -0.139,-1.159 -0.236,-1.743zm-41.456 -38.916c3.954,1.821 7.658,4.188 10.162,7.298 3.82,4.742 4.945,10.775 4.945,16.523 0,8.489 -1.985,17.396 -8.944,23.542 -7.067,6.242 -17.42,7.872 -26.928,7.872l-30.822 0c-3.028,0 -5.007,-1.896 -5.007,-4.609l0 -3.448c0,-2.167 1.384,-3.811 3.472,-4.667 0.951,-0.41 1.823,-0.926 1.823,-1.957l0 -68.766c0,-0.05 0,-0.111 -0.003,-0.175 -0.556,-0.296 -1.323,-0.607 -1.772,-0.797 -1.409,-0.594 -2.668,-1.451 -3.159,-2.85 -0.385,-1.098 -0.361,-2.815 -0.361,-3.97 0,-1.605 0.203,-3.411 1.355,-4.707 1.164,-1.311 2.931,-1.792 4.729,-1.792l34.566 0c7.747,0 15.558,1.576 21.325,6.542 5.233,4.509 7.66,10.214 7.66,16.71 0,5.49 -1.943,10.371 -6.126,14.366 -2.073,1.981 -4.383,3.605 -6.915,4.885zm44.542 35.599l-10.413 0 -0.371 2.638c-0.031,0.374 -0.127,0.736 -0.254,1.094 -0.211,0.676 -0.381,1.416 -0.381,2.119 0,0.336 1.027,0.88 1.277,1.001 1.37,0.66 2.672,1.565 3.32,2.882l0.038 0.082c0.501,1.116 0.595,2.497 0.595,3.692 0,1.249 0.013,3.025 -0.642,4.144 -0.829,1.414 -2.421,1.984 -4.107,1.984l-16.617 0c-3.399,0 -4.49,-2.859 -4.49,-5.447 0,-2.726 0.999,-5.233 3.21,-7.129 0.646,-0.554 1.337,-1.297 1.476,-2.153l11.705 -67.252c0.146,-0.701 0.268,-1.453 0.3,-2.019 -0.148,-0.266 -0.899,-0.688 -1.235,-0.858 -2.146,-1.147 -2.8,-3.329 -2.8,-5.446 0,-1.452 -0.005,-3.779 0.651,-5.013 0.863,-1.771 2.848,-2.421 4.851,-2.421l24.129 0c2.745,0 4.89,1.322 5.963,3.602 1.106,2.349 1.625,6.403 1.989,8.944 0.228,1.602 0.481,3.2 0.744,4.796l10.353 62.707c0.315,1.906 1.007,3.926 2.602,5.283 0.611,0.469 1.219,1.006 1.64,1.624l0.046 0.069 0.043 0.071c0.598,1.003 0.61,2.475 0.61,3.598 0,1.487 -0.011,3.714 -0.874,5.015 -0.985,1.485 -2.735,2.029 -4.563,2.029l-27.937 0c-3.133,0 -4.363,-2.498 -4.363,-4.979 0,-1.312 0.002,-3.32 0.572,-4.532 0.572,-1.218 1.762,-2.116 2.943,-2.843l0.106 -0.062c0.29,-0.164 0.771,-0.446 0.771,-0.804 0,-1.782 -0.456,-4.251 -0.887,-6.416zm-66.111 -66.039l0 24.287 0.18 0c0.975,0 1.951,-0.148 2.655,-0.803 0.849,-0.789 1.117,-2.679 1.191,-3.71 0.226,-3.167 0.274,-6.367 0.274,-9.539 0,-1.864 -0.103,-7.518 -1.233,-9.12 -0.657,-0.93 -1.724,-1.115 -2.887,-1.115l-0.18 0zm0 36.467l0 36.876c1.105,-0.115 2.159,-0.313 2.622,-0.65 0.792,-0.575 1.082,-2.853 1.148,-3.676 0.37,-4.614 0.335,-9.448 0.335,-14.075 0,-3.079 -0.118,-6.189 -0.193,-9.268 -0.041,-1.698 -0.049,-6.388 -0.555,-7.892 -0.152,-0.391 -0.366,-0.7 -0.749,-0.93 -0.546,-0.33 -1.804,-0.385 -2.428,-0.385l-0.18 0zm61.078 -4.208l-3.469 21.6 6.813 0 -3.344 -21.6z"/>
   <path class="fil1" d="M52.022 45.738c7.705,2.435 13,5.454 15.883,9.039 2.906,3.604 4.348,8.552 4.348,14.864 0,9.623 -2.669,16.811 -8.006,21.526 -5.338,4.714 -13.582,7.071 -24.753,7.071l-30.822 0c-1.27,0 -1.894,-0.604 -1.894,-1.792l0 -3.448c0,-0.955 0.559,-1.656 1.7,-2.124 2.389,-1.032 3.595,-2.532 3.595,-4.5l0 -68.766c0,-0.935 -0.172,-1.597 -0.517,-1.928 -0.344,-0.351 -1.356,-0.877 -3.056,-1.598 -0.84,-0.351 -1.356,-0.721 -1.507,-1.15 -0.15,-0.428 -0.215,-1.461 -0.215,-3.116 0,-1.461 0.215,-2.435 0.668,-2.942 0.429,-0.487 1.204,-0.74 2.303,-0.74l34.566 0c8.331,0 14.723,1.929 19.179,5.767 4.455,3.836 6.693,8.727 6.693,14.668 0,4.948 -1.765,9.078 -5.273,12.429 -3.508,3.35 -7.792,5.591 -12.892,6.74zm-16.445 -33.175l0 29.922 3.293 0c2.088,0 3.703,-0.546 4.886,-1.656 1.184,-1.091 1.873,-2.942 2.066,-5.494 0.172,-2.571 0.281,-5.805 0.281,-9.72 0,-5.475 -0.582,-9.02 -1.723,-10.637 -1.141,-1.617 -2.97,-2.415 -5.51,-2.415l-3.293 0zm0 36.467l0 42.662c3.81,0 6.372,-0.467 7.685,-1.422 1.312,-0.954 2.087,-2.844 2.303,-5.668 0.236,-2.805 0.343,-7.578 0.343,-14.28 0,-1.364 -0.064,-4.48 -0.193,-9.331 -0.108,-4.851 -0.366,-7.772 -0.732,-8.766 -0.387,-0.993 -1.033,-1.773 -1.958,-2.338 -0.948,-0.565 -2.325,-0.857 -4.155,-0.857l-3.293 0zm71.824 29.572l-15.755 0 -0.732 5.201c0,0.117 -0.043,0.292 -0.129,0.526 -0.344,1.091 -0.516,2.065 -0.516,2.941 0,1.364 0.968,2.533 2.927,3.488 1.033,0.487 1.679,1.012 1.937,1.539 0.236,0.525 0.366,1.402 0.366,2.63 0,1.558 -0.086,2.493 -0.28,2.824 -0.194,0.331 -0.646,0.487 -1.356,0.487l-16.617 0c-0.925,0 -1.377,-0.877 -1.377,-2.63 0,-2.084 0.753,-3.798 2.238,-5.084 1.4,-1.189 2.196,-2.436 2.411,-3.76l11.688 -67.169c0.215,-1.032 0.322,-1.928 0.322,-2.688 0,-1.17 -0.925,-2.221 -2.733,-3.137 -0.839,-0.448 -1.27,-1.46 -1.27,-3.019 0,-2.085 0.129,-3.39 0.387,-3.877 0.237,-0.487 0.926,-0.74 2.002,-0.74l24.129 0c1.463,0 2.497,0.623 3.099,1.889 0.581,1.248 1.163,3.975 1.765,8.202 0.237,1.636 0.495,3.253 0.753,4.85l10.353 62.708c0.496,3.059 1.7,5.377 3.616,6.975 0.538,0.409 0.882,0.74 1.054,0.993 0.151,0.253 0.237,0.993 0.237,2.26 0,1.948 -0.151,3.136 -0.43,3.565 -0.302,0.447 -0.926,0.662 -1.894,0.662l-27.937 0c-0.84,0 -1.25,-0.721 -1.25,-2.162 0,-1.832 0.109,-2.981 0.324,-3.429 0.215,-0.468 0.817,-0.993 1.829,-1.617 1.486,-0.837 2.239,-1.909 2.239,-3.195 0,-1.324 -0.474,-4.402 -1.4,-9.233zm-7.576 -50.903l-7.124 44.357 13.99 0 -6.866 -44.357z"/>
  </g>
  <path class="fil2" d="M16.235 95.52l3.102 6.264c9.66,12.594 9.746,4.415 9.746,25.059 7.704,-1.83 33.859,-9.562 39.919,-12.529 2.414,5.567 1.498,-2.324 -0.078,4.13 -1.199,4.904 -0.327,-1.785 -2.994,8.399 26.58,-2.255 11.435,-15.171 60.493,-38.528 10.387,-4.946 15.144,-3.992 16.275,-17.855 -22.171,-5.268 -46.476,9.571 -64.485,18.794 -8.349,4.276 -22.592,14.236 -30.11,13.631 -13.516,-1.09 -14.145,-15.21 -31.868,-7.365z"/>
  <rect class="fil3" width="142.698" height="126.843"/>
 </g>
</svg>
